<?xml version="1.0" encoding="UTF-8"?>
<svg id="Ebene_1" data-name="Ebene 1" xmlns="http://www.w3.org/2000/svg" viewBox="0 0 385.81 53.75">
  <defs>
    <style>
      .cls-1, .cls-2, .cls-3, .cls-4, .cls-5, .cls-6, .cls-7 {
        stroke-width: 0px;
      }

      .cls-1, .cls-4 {
        fill: #da1f45;
      }

      .cls-2, .cls-5 {
        fill: #fff;
      }

      .cls-3 {
        fill: #b2a6a9;
      }

      .cls-3, .cls-4, .cls-5, .cls-7 {
        fill-rule: evenodd;
      }

      .cls-6 {
        fill: #1d1d1b;
      }

      .cls-7 {
        fill: #999;
      }
    </style>
  </defs>
  <path class="cls-2" d="m76.07,19.2v19.69h-5.88v-19.69h-12.33v-5.88h30.53v5.88h-12.33Z"/>
  <path class="cls-2" d="m114.94,38.89h-14.78c-4.35,0-7.88-3.53-7.88-7.88v-9.82c0-4.35,3.53-7.88,7.88-7.88h14.78c4.35,0,7.88,3.53,7.88,7.88v9.82c0,4.35-3.53,7.88-7.88,7.88Zm1.94-17.7c0-1.12-.87-1.99-1.94-1.99h-14.78c-1.07,0-1.94.87-1.94,1.99v9.82c0,1.07.87,2,1.94,2h14.78c1.07,0,1.94-.92,1.94-2v-9.82Z"/>
  <path class="cls-2" d="m135.8,19.2c-1.07,0-1.94.87-1.94,1.99v17.7h-5.93v-17.7c0-4.35,3.53-7.88,7.88-7.88h15.29v5.88h-15.29Z"/>
  <path class="cls-2" d="m178.87,29.07h-4.45v9.82h-5.88v-9.82h-4.45c-4.35,0-7.88-3.53-7.88-7.88v-7.88h5.93v7.88c0,1.07.87,1.94,1.94,1.94h14.78c1.07,0,1.94-.87,1.94-1.94v-7.88h5.93v7.88c0,4.35-3.53,7.88-7.88,7.88Z"/>
  <path class="cls-1" d="m214.51,38.89h-22.66V13.31h22.66c4.35,0,7.88,3.53,7.88,7.88,0,1.84-.66,3.58-1.74,4.91,1.07,1.33,1.74,3.07,1.74,4.91,0,4.35-3.53,7.88-7.88,7.88Zm0-19.69h-16.73v3.94h16.73c1.07,0,1.94-.87,1.94-1.94s-.87-1.99-1.94-1.99Zm0,9.87h-16.73v3.94h16.73c1.07,0,1.94-.92,1.94-2s-.87-1.94-1.94-1.94Z"/>
  <path class="cls-1" d="m250.16,38.89h-14.78c-4.35,0-7.88-3.53-7.88-7.88v-9.82c0-4.35,3.53-7.88,7.88-7.88h14.78c4.35,0,7.88,3.53,7.88,7.88v9.82c0,4.35-3.53,7.88-7.88,7.88Zm1.94-17.7c0-1.12-.87-1.99-1.94-1.99h-14.78c-1.07,0-1.94.87-1.94,1.99v9.82c0,1.07.87,2,1.94,2h14.78c1.07,0,1.94-.92,1.94-2v-9.82Z"/>
  <path class="cls-1" d="m285.81,38.89h-14.78c-4.35,0-7.88-3.53-7.88-7.88v-9.82c0-4.35,3.53-7.88,7.88-7.88h14.78c4.35,0,7.88,3.53,7.88,7.88v9.82c0,4.35-3.53,7.88-7.88,7.88Zm1.94-17.7c0-1.12-.87-1.99-1.94-1.99h-14.78c-1.07,0-1.94.87-1.94,1.99v9.82c0,1.07.87,2,1.94,2h14.78c1.07,0,1.94-.92,1.94-2v-9.82Z"/>
  <path class="cls-1" d="m298.8,38.89V13.31h5.93v25.57h-5.93Z"/>
  <path class="cls-1" d="m299.8,26.1l14.74-12.79h6.84l-14.74,12.79h-6.84Z"/>
  <path class="cls-1" d="m314.54,38.89l-14.74-12.79h6.84s14.74,12.79,14.74,12.79h-6.84Z"/>
  <path class="cls-1" d="m316.61,38.89l-14.74-12.79h6.84s14.74,12.79,14.74,12.79h-6.84Z"/>
  <path class="cls-1" d="m301.87,26.1l14.74-12.79h6.84l-14.74,12.79h-6.84Z"/>
  <g>
    <path id="Fill-14" class="cls-5" d="m381.56,23.86h-49.46c-2.34,0-4.25-1.91-4.25-4.25V4.25c0-2.34,1.91-4.25,4.25-4.25h49.46c2.34,0,4.25,1.91,4.25,4.25v15.35c0,2.34-1.91,4.25-4.25,4.25"/>
    <path class="cls-6" d="m344.57,18.68v-9c0-.57-.42-1.01-.94-1.01h-7.16c-.52,0-.94.44-.94,1.01v9h-2.87v-9c0-2.21,1.71-4,3.81-4h7.16c2.1,0,3.81,1.79,3.81,4v9h-2.87Z"/>
    <path class="cls-6" d="m353.73,18.68c-2.1,0-3.81-1.79-3.81-4v-4.99c0-2.24,1.71-4,3.81-4h7.16c2.1,0,3.81,1.79,3.81,4v4h-11.91v.99c0,.55.42,1.01.94,1.01h10.97v2.99h-10.97Zm8.1-9c0-.57-.42-1.01-.94-1.01h-7.16c-.52,0-.94.44-.94,1.01v.99h9.04v-.99Z"/>
    <path class="cls-6" d="m378.15,18.68h-7.16c-2.11,0-3.81-1.79-3.81-4v-4.99c0-2.21,1.71-4,3.81-4h7.16c2.1,0,3.81,1.79,3.81,4v4.99c0,2.21-1.71,4-3.81,4Zm.94-9c0-.57-.42-1.01-.94-1.01h-7.16c-.52,0-.94.44-.94,1.01v4.99c0,.55.42,1.01.94,1.01h7.16c.52,0,.94-.47.94-1.01v-4.99Z"/>
  </g>
  <g id="Group-5">
    <path id="Fill-1" class="cls-3" d="m16.9,11.04h34.16v29.03c0,2.76-2.24,5-5,5h-29.16V11.04"/>
    <path id="Fill-3" class="cls-7" d="m11.85,0v53.75h-1.5c-5.72,0-10.35-4.34-10.35-9.68V9.69C0,4.34,4.63,0,10.35,0h1.5"/>
    <path id="Fill-4" class="cls-4" d="m11.85,0h29.45c5.39,0,9.76,4.38,9.76,9.77v34.21c0,5.39-4.37,9.76-9.76,9.76H11.85V0"/>
  </g>
  <path class="cls-2" d="m41.19,45.31H15.07v-8.15h26.12c1.35,0,2.45-1.28,2.45-2.76s-1.1-2.69-2.45-2.69h-16.77c-5.48,0-9.93-4.89-9.93-10.92s4.45-10.92,9.93-10.92h26.63v8.15h-26.63c-1.35,0-2.51,1.21-2.51,2.76s1.16,2.69,2.51,2.69h16.77c5.48,0,9.87,4.89,9.87,10.92s-4.38,10.92-9.87,10.92Z"/>
</svg>